<svg width="248" height="124" viewBox="0 0 248 124" fill="none" xmlns="http://www.w3.org/2000/svg">
<g clip-path="url(#clip0_242_569)">
<path d="M201.05 76.3599H75.25V78.0366H201.05V76.3599Z" fill="#1EE5DA"/>
<path d="M84.3553 9.68323L80.5507 10.5002C80.5142 10.5079 80.4761 10.5002 80.4457 10.4773L67.8975 0.733045L70.3785 0.00768481C70.4303 -0.00911301 70.479 -0.00147763 70.5232 0.0305909L84.3553 9.68323Z" fill="#00C5CD"/>
<path d="M67.898 0.73291L80.4462 10.4772C80.4766 10.5001 80.5147 10.5077 80.5512 10.5001L84.3558 9.68309C87.2723 9.08295 90.2133 8.47518 93.1786 7.86129C94.4808 7.59253 95.4799 7.42913 96.179 7.36958C100.259 7.02598 104.02 7.97277 107.458 10.2099C109.21 11.3491 109.809 13.0839 108.729 15.0431C108.968 13.7008 108.558 12.7204 107.5 12.105C105.565 10.9796 103.869 10.3077 101.616 10.0236C99.0545 9.69989 96.5613 9.78083 94.1351 10.2649C89.3954 11.2132 78.2378 13.4977 60.6621 17.1169C59.0903 17.4406 58.8177 17.0024 57.8018 15.77C56.9413 14.727 56.0793 13.684 55.2142 12.6441C53.6135 10.7185 52.4941 9.58689 50.0847 9.65866C49.148 9.68615 48.0027 9.7961 46.6457 9.99004L45.0587 7.66888C45.0328 7.63223 45.042 7.58184 45.0785 7.55588C45.0892 7.54824 45.1014 7.54366 45.1151 7.54214C46.8863 7.3146 48.9318 6.942 50.5279 7.10845C52.2504 7.29017 53.7826 7.91474 55.1213 8.98369C55.63 9.3899 56.2682 10.0786 57.0373 11.0498C57.98 12.2394 58.9152 13.4305 59.8457 14.6201C59.8792 14.6629 59.9326 14.6827 59.9843 14.672L74.8658 11.621C74.8871 11.6164 74.8993 11.5965 74.8947 11.5751C74.8947 11.569 74.8902 11.5629 74.8856 11.5568L65.6804 1.49492C65.6393 1.45064 65.6469 1.41857 65.7063 1.40177L67.898 0.73291Z" fill="#1EE5DA"/>
<path d="M53.3643 19.6865C53.3643 19.6865 53.3623 19.6846 53.3604 19.6826C53.3604 19.6826 53.3623 19.6846 53.3643 19.6865Z" fill="#00C5CD"/>
<path d="M107.499 12.1054C105.565 10.9799 103.869 10.308 101.616 10.024C99.0543 9.70021 96.5611 9.78115 94.1349 10.2652C89.3953 11.2135 78.2376 13.498 60.6619 17.1172C59.0901 17.441 58.8175 17.0027 57.8017 15.7703C56.9411 14.7273 56.0791 13.6844 55.214 12.6444C53.6133 10.7188 52.4939 9.58721 50.0845 9.65898C49.1478 9.68647 48.0025 9.79642 46.6455 9.99036L52.0187 17.9281L52.4162 18.5038C52.43 18.5237 52.4376 18.5404 52.4437 18.5572C52.6264 18.8245 52.8655 19.1375 53.097 19.4002C53.1823 19.4949 53.2707 19.5896 53.362 19.6827C53.362 19.6827 53.3636 19.6842 53.3651 19.6858C54.6795 21.0296 56.4523 22.0604 58.321 22.2909C58.7551 22.3444 59.3551 22.323 60.1227 22.2268C64.4801 21.6816 68.8558 21.1487 73.2512 20.6264L74.8702 18.3358C74.9326 18.2457 75.0316 18.1862 75.1413 18.174L89.642 16.4163C89.6603 16.4132 89.677 16.4193 89.6892 16.4331C89.7105 16.456 89.7105 16.4911 89.6892 16.5125L87.3072 18.8932C93.681 18.1266 100.006 17.3585 106.284 16.5873C107.352 16.456 108.168 15.9414 108.73 15.0434C108.969 13.7012 108.559 12.7208 107.501 12.1054H107.499Z" fill="#00C5CD"/>
<path d="M87.3053 18.8931L70.1774 36.2162C70.1424 36.2513 70.1028 36.262 70.0555 36.2513L63.5979 34.5853C63.4685 34.5532 63.4426 34.4814 63.5203 34.373L73.2493 20.6263L74.8683 18.3357C74.9307 18.2456 75.0297 18.186 75.1394 18.1738L89.6401 16.4161C89.6706 16.4116 89.6995 16.4329 89.7041 16.465C89.7071 16.4833 89.701 16.5001 89.6873 16.5123L87.3053 18.8931Z" fill="#1EE5DA"/>
<path d="M40.9039 87.6281H35.8154V87.0127H46.6456V87.6281H41.5572V100.909H40.9039V87.6281Z" fill="#002F49"/>
<path d="M59.4952 100.909L56.0699 96.1247C55.6206 96.2042 55.1195 96.2439 54.5651 96.2439H50.4271V100.909H49.7539V87.0127H54.5651C56.2938 87.0127 57.6432 87.4204 58.6133 88.2344C59.5835 89.0483 60.0678 90.1768 60.0678 91.6199C60.0678 92.7316 59.7815 93.6616 59.2058 94.4083C58.6316 95.1566 57.8092 95.6758 56.7415 95.9675L60.2856 100.911H59.4936L59.4952 100.909ZM54.6047 95.6284C56.1491 95.6284 57.337 95.2803 58.1686 94.5855C59.0002 93.8906 59.416 92.9011 59.416 91.6184C59.416 90.3356 59.0002 89.3659 58.1686 88.6711C57.337 87.9763 56.1491 87.6281 54.6047 87.6281H50.4271V95.6284H54.6047Z" fill="#002F49"/>
<path d="M72.959 96.8394H64.663L62.8019 100.909H62.0693L68.4843 87.0127H69.1377L75.5527 100.909H74.8201L72.959 96.8394ZM72.7016 96.2637L68.8209 87.7869L64.9204 96.2637H72.7016Z" fill="#002F49"/>
<path d="M89.808 87.0127V100.909H89.2537L79.4134 88.2435V100.909H78.7402V87.0127H79.2946L89.1349 99.6783V87.0127H89.808Z" fill="#002F49"/>
<path d="M96.0148 100.453C95.1101 100.095 94.4141 99.6326 93.9268 99.063L94.2831 98.5866C94.7446 99.1165 95.3889 99.5486 96.2128 99.8861C97.0383 100.224 97.9186 100.393 98.8553 100.393C100.241 100.393 101.288 100.118 101.994 99.5685C102.701 99.0203 103.054 98.3148 103.054 97.455C103.054 96.7938 102.87 96.2608 102.5 95.8577C102.13 95.4545 101.674 95.1491 101.134 94.9445C100.593 94.7399 99.8528 94.5246 98.9162 94.3001C97.9125 94.0481 97.1068 93.8038 96.5007 93.5656C95.893 93.3273 95.3782 92.9639 94.9563 92.4737C94.5344 91.9835 94.3227 91.3284 94.3227 90.5084C94.3227 89.8593 94.4933 89.2638 94.8375 88.7217C95.1802 88.1796 95.7056 87.7459 96.4108 87.4221C97.1175 87.0984 97.9978 86.9365 99.0548 86.9365C99.8071 86.9365 100.549 87.0495 101.281 87.274C102.014 87.4985 102.637 87.81 103.153 88.2071L102.856 88.7431C102.316 88.346 101.711 88.0452 101.044 87.839C100.377 87.6344 99.7203 87.5321 99.0746 87.5321C97.7282 87.5321 96.7078 87.8131 96.0163 88.3766C95.3234 88.9385 94.9761 89.6501 94.9761 90.5099C94.9761 91.1848 95.165 91.7239 95.5412 92.127C95.9173 92.5317 96.3788 92.8387 96.9271 93.0494C97.4754 93.2617 98.211 93.48 99.1355 93.7045C100.139 93.9565 100.943 94.1978 101.551 94.4299C102.159 94.662 102.669 95.0193 103.086 95.5019C103.502 95.9844 103.709 96.6304 103.709 97.4367C103.709 98.0857 103.534 98.6813 103.184 99.2234C102.833 99.7655 102.296 100.196 101.571 100.514C100.844 100.831 99.9473 100.99 98.8781 100.99C97.8744 100.99 96.921 100.812 96.0163 100.454L96.0148 100.453Z" fill="#002F49"/>
<path d="M116.685 88.2328C117.655 89.0468 118.139 90.1753 118.139 91.6184C118.139 93.0614 117.653 94.2083 116.685 95.0222C115.714 95.8361 114.365 96.2439 112.636 96.2439H108.498V100.909H107.825V87.0127H112.636C114.365 87.0127 115.714 87.4204 116.685 88.2344V88.2328ZM116.238 94.5855C117.07 93.8906 117.486 92.9011 117.486 91.6184C117.486 90.3356 117.07 89.3659 116.238 88.6711C115.407 87.9763 114.219 87.6281 112.675 87.6281H108.497V95.6284H112.675C114.219 95.6284 115.407 95.2803 116.238 94.5855Z" fill="#002F49"/>
<path d="M124.506 100.075C123.417 99.4658 122.563 98.6259 121.941 97.5539C121.321 96.4819 121.011 95.2847 121.011 93.9607C121.011 92.6367 121.321 91.4395 121.941 90.3675C122.561 89.2955 123.417 88.4556 124.506 87.8463C125.595 87.237 126.812 86.9331 128.158 86.9331C129.505 86.9331 130.726 87.237 131.821 87.8463C132.916 88.4556 133.775 89.2955 134.395 90.3675C135.015 91.4395 135.326 92.6383 135.326 93.9607C135.326 95.2831 135.015 96.4819 134.395 97.5539C133.774 98.6259 132.916 99.4658 131.821 100.075C130.726 100.684 129.505 100.988 128.158 100.988C126.812 100.988 125.595 100.684 124.506 100.075ZM131.465 99.5391C132.455 98.9833 133.233 98.2151 133.801 97.2363C134.369 96.2574 134.652 95.1656 134.652 93.9607C134.652 92.7558 134.368 91.664 133.801 90.6851C133.233 89.7063 132.455 88.9382 131.465 88.3823C130.475 87.8264 129.372 87.5485 128.158 87.5485C126.944 87.5485 125.845 87.8264 124.862 88.3823C123.879 88.9382 123.103 89.7063 122.535 90.6851C121.967 91.6655 121.684 92.7558 121.684 93.9607C121.684 95.1656 121.967 96.2574 122.535 97.2363C123.103 98.2151 123.879 98.9833 124.862 99.5391C125.846 100.095 126.944 100.373 128.158 100.373C129.372 100.373 130.475 100.095 131.465 99.5391Z" fill="#002F49"/>
<path d="M149.225 100.909L145.799 96.1247C145.35 96.2042 144.849 96.2439 144.295 96.2439H140.157V100.909H139.483V87.0127H144.295C146.023 87.0127 147.373 87.4204 148.343 88.2344C149.313 89.0483 149.797 90.1768 149.797 91.6199C149.797 92.7316 149.511 93.6616 148.935 94.4083C148.361 95.1566 147.539 95.6758 146.471 95.9675L150.015 100.911H149.223L149.225 100.909ZM144.334 95.6284C145.879 95.6284 147.067 95.2803 147.898 94.5855C148.73 93.8906 149.145 92.9011 149.145 91.6184C149.145 90.3356 148.73 89.3659 147.898 88.6711C147.067 87.9763 145.879 87.6281 144.334 87.6281H140.157V95.6284H144.334Z" fill="#002F49"/>
<path d="M156.629 87.6281H151.541V87.0127H162.371V87.6281H157.283V100.909H156.629V87.6281Z" fill="#002F49"/>
<path d="M173.28 96.8394H164.984L163.123 100.909H162.391L168.806 87.0127H169.459L175.874 100.909H175.141L173.28 96.8394ZM173.023 96.2637L169.142 87.7869L165.242 96.2637H173.023Z" fill="#002F49"/>
<path d="M179.062 87.0127H184.407C185.847 87.0127 187.123 87.3105 188.238 87.906C189.353 88.5016 190.218 89.3247 190.831 90.3784C191.445 91.4305 191.751 92.6247 191.751 93.9609C191.751 95.2971 191.445 96.4928 190.831 97.5434C190.218 98.5956 189.353 99.4202 188.238 100.016C187.123 100.611 185.845 100.909 184.407 100.909H179.062V87.0127ZM184.368 100.294C185.714 100.294 186.891 100.022 187.901 99.4797C188.911 98.9376 189.694 98.1863 190.248 97.2273C190.803 96.2683 191.08 95.1795 191.08 93.9624C191.08 92.7453 190.803 91.6565 190.248 90.6975C189.694 89.7385 188.912 88.9872 187.901 88.4451C186.891 87.903 185.714 87.6312 184.368 87.6312H179.735V100.297H184.368V100.294Z" fill="#002F49"/>
<path d="M198 100.075C196.911 99.4658 196.057 98.6259 195.435 97.5539C194.816 96.4819 194.505 95.2847 194.505 93.9607C194.505 92.6367 194.816 91.4395 195.435 90.3675C196.055 89.2955 196.911 88.4556 198 87.8463C199.089 87.237 200.306 86.9331 201.652 86.9331C202.999 86.9331 204.22 87.237 205.315 87.8463C206.41 88.4556 207.269 89.2955 207.889 90.3675C208.509 91.4395 208.82 92.6383 208.82 93.9607C208.82 95.2831 208.509 96.4819 207.889 97.5539C207.268 98.6259 206.41 99.4658 205.315 100.075C204.22 100.684 202.999 100.988 201.652 100.988C200.306 100.988 199.089 100.684 198 100.075ZM204.959 99.5391C205.949 98.9833 206.727 98.2151 207.295 97.2363C207.863 96.2574 208.147 95.1656 208.147 93.9607C208.147 92.7558 207.862 91.664 207.295 90.6851C206.727 89.7063 205.949 88.9382 204.959 88.3823C203.969 87.8264 202.866 87.5485 201.652 87.5485C200.439 87.5485 199.339 87.8264 198.357 88.3823C197.373 88.9382 196.598 89.7063 196.029 90.6851C195.461 91.6655 195.178 92.7558 195.178 93.9607C195.178 95.1656 195.461 96.2574 196.029 97.2363C196.598 98.2151 197.373 98.9833 198.357 99.5391C199.34 100.095 200.439 100.373 201.652 100.373C202.866 100.373 203.969 100.095 204.959 99.5391Z" fill="#002F49"/>
<path d="M222.72 100.909L219.294 96.1247C218.845 96.2042 218.344 96.2439 217.79 96.2439H213.652V100.909H212.979V87.0127H217.79C219.518 87.0127 220.868 87.4204 221.838 88.2344C222.808 89.0483 223.292 90.1768 223.292 91.6199C223.292 92.7316 223.006 93.6616 222.43 94.4083C221.856 95.1566 221.034 95.6758 219.966 95.9675L223.51 100.911H222.718L222.72 100.909ZM217.829 95.6284C219.374 95.6284 220.562 95.2803 221.393 94.5855C222.225 93.8906 222.641 92.9011 222.641 91.6184C222.641 90.3356 222.225 89.3659 221.393 88.6711C220.562 87.9763 219.374 87.6281 217.829 87.6281H213.652V95.6284H217.829Z" fill="#002F49"/>
<path d="M236.183 96.8394H227.887L226.026 100.909H225.293L231.708 87.0127H232.361L238.776 100.909H238.044L236.183 96.8394ZM235.925 96.2637L232.045 87.7869L228.144 96.2637H235.925Z" fill="#002F49"/>
<path d="M52.0194 18L52.4169 18.5757C52.4824 18.6704 52.4565 18.7223 52.3422 18.7299C26.3412 20.6327 4.69445 40.7656 3.33896 67.3764C2.67187 80.4833 7.6019 93.436 16.5192 102.979C21.6487 108.47 28.4414 113.008 35.6743 115.594C47.0726 119.667 58.3369 118.996 70.1357 115.772C76.1136 114.14 82.9093 109.256 82.9093 109.256C83.5048 109.256 89.6213 109.273 92.1632 109.256C90.0416 112.066 85.7117 114.726 83.383 116.307C82.7814 116.716 80.8517 117.744 80.8517 117.744L78.3616 118.978L76.1547 119.943L73.7818 120.855C57.4413 126.57 39.4133 124.608 24.7984 115.45C2.2104 101.297 -6.45561 72.709 5.13003 48.4835C13.8158 30.322 32.054 18.8109 52.0194 18Z" fill="#1EE5DA"/>
<path d="M34.8907 44.0623C39.6487 42.2466 45.1316 43.3675 48.7853 47.0065C48.8173 47.0386 48.8188 47.0737 48.7899 47.1088L45.8367 50.7295C45.8047 50.7677 45.7469 50.7738 45.7073 50.7402C45.7042 50.7371 45.7012 50.7341 45.6981 50.731C43.2506 47.9472 39.3486 46.7347 36.0147 48.8146C31.8538 51.4091 31.5827 57.6334 35.4421 60.6417C38.7196 63.1965 42.9506 62.1444 45.7088 59.4231C45.7499 59.3834 45.7895 59.385 45.8276 59.4262L48.8036 62.6773C48.8447 62.7216 48.8432 62.7659 48.8005 62.8087C47.1237 64.5098 45.1377 65.7009 42.844 66.3835C37.2743 68.0389 31.0786 65.5895 28.523 60.2722C27.3 57.7281 27.0015 55.0725 27.6274 52.3039C28.4986 48.4465 31.2233 45.4626 34.8907 44.0623Z" fill="#002F49"/>
<path d="M85.4458 60.0567V66.5438C85.4458 66.5911 85.423 66.6155 85.3757 66.6155H80.2782C80.2294 66.6155 80.2051 66.5911 80.2051 66.5422V43.4529C80.2051 43.4147 80.2234 43.3964 80.2614 43.3948C85.7397 43.3322 89.5382 43.3383 91.6597 43.4132C92.5324 43.4437 93.6092 43.6896 94.8901 44.1492C98.9154 45.5923 100.192 49.4344 99.5399 53.3834C99.1332 55.8481 97.7747 57.702 95.4673 58.9466C95.417 58.9725 95.4079 59.0092 95.4384 59.0565L100.239 66.5224C100.257 66.5499 100.251 66.5865 100.224 66.6048C100.213 66.6125 100.201 66.6155 100.189 66.6155H94.4073C94.3662 66.6155 94.3357 66.5972 94.3159 66.5606L90.7429 60.0445C90.7185 60.0002 90.6804 59.9773 90.6302 59.9773H85.525C85.4717 59.9773 85.4458 60.0033 85.4458 60.0567ZM85.4321 47.8142L85.4595 55.5656C85.4595 55.5885 85.4778 55.6069 85.5006 55.6069L90.8769 55.587C93.0015 55.5794 94.7164 53.9775 94.7104 52.0091L94.7073 51.3036C94.6997 49.3352 92.9726 47.7455 90.8495 47.7531L85.4732 47.773C85.4504 47.773 85.4321 47.7913 85.4321 47.8142Z" fill="#002F49"/>
<path d="M148.199 47.816V52.698C148.199 52.7332 148.227 52.7607 148.262 52.7607H159.32C159.355 52.7607 159.383 52.7881 159.383 52.8233L159.386 57.0578C159.386 57.093 159.358 57.1204 159.323 57.1204H148.262C148.227 57.1204 148.199 57.1479 148.199 57.1831V62.198C148.199 62.2331 148.227 62.2606 148.262 62.2606H160.901C160.936 62.2606 160.964 62.2881 160.964 62.3232V66.5746C160.964 66.6097 160.936 66.6372 160.901 66.6372H143.019C142.984 66.6372 142.957 66.6097 142.957 66.5746V43.4318C142.957 43.3966 142.984 43.3691 143.019 43.3691L160.54 43.3722C160.575 43.3722 160.603 43.3997 160.603 43.4348L160.601 47.6892C160.601 47.7244 160.574 47.7518 160.539 47.7518H148.262C148.227 47.7518 148.199 47.7809 148.199 47.816Z" fill="#002F49"/>
<path d="M57.9234 62.135L56.1384 66.5819C56.1308 66.6017 56.1095 66.6155 56.0882 66.6155H50.7789C50.75 66.6155 50.7256 66.591 50.7256 66.562C50.7256 66.5544 50.7271 66.5468 50.7302 66.5406L60.7379 43.433C60.7471 43.4131 60.7654 43.4009 60.7867 43.4009H66.1416C66.163 43.4009 66.1812 43.4131 66.1904 43.433L76.0337 66.5406C76.0459 66.5681 76.0337 66.5987 76.0063 66.6109C76.0002 66.6139 75.9925 66.6155 75.9849 66.6155H70.4792C70.4579 66.6155 70.4366 66.6017 70.4289 66.5819L68.6409 62.135C68.6333 62.1152 68.6135 62.1014 68.5907 62.1014H57.9737C57.9523 62.1014 57.931 62.1152 57.9234 62.135ZM59.6931 57.8012C59.6825 57.8287 59.6962 57.8592 59.7221 57.8699C59.7282 57.873 59.7343 57.873 59.7419 57.8745L66.8559 57.8867C66.8849 57.8867 66.9092 57.8638 66.9108 57.8348C66.9108 57.8272 66.9108 57.821 66.9062 57.8134L63.3636 49.0266C63.353 48.9991 63.321 48.9854 63.2951 48.9961C63.2814 49.0022 63.2707 49.0129 63.2646 49.0266L59.6931 57.8012Z" fill="#002F49"/>
<path d="M110.919 43.4009H105.817C105.78 43.4009 105.75 43.431 105.75 43.4681V66.5483C105.75 66.5854 105.78 66.6155 105.817 66.6155H110.919C110.956 66.6155 110.986 66.5854 110.986 66.5483V43.4681C110.986 43.431 110.956 43.4009 110.919 43.4009Z" fill="#002F49"/>
<path d="M132.899 54.3152C135.129 54.8008 136.574 56.0744 137.235 58.136C137.791 59.8738 137.657 61.497 136.833 63.0058C135.193 66.0065 131.597 66.6127 128.533 66.6143C124.967 66.6158 121.407 66.6158 117.853 66.6143C117.806 66.6143 117.783 66.5914 117.783 66.544V43.4852C117.782 43.4348 117.808 43.4088 117.858 43.4088C121.824 43.389 125.782 43.3905 129.734 43.4134C130.184 43.4165 130.947 43.5585 132.02 43.838C134.532 44.4931 136.577 46.2538 136.634 49.0071C136.686 51.5879 135.44 53.3364 132.895 54.2511C132.823 54.277 132.825 54.2984 132.899 54.3152ZM123.019 47.7244L123.029 52.669C123.029 52.6889 123.045 52.7057 123.065 52.7057L128.449 52.6965C130.015 52.6935 131.282 51.6337 131.279 50.3311V50.0333C131.276 48.7292 130.006 47.6755 128.44 47.6785L123.056 47.6877C123.036 47.6877 123.019 47.7045 123.019 47.7244ZM123.022 56.8089V62.282C123.022 62.3079 123.044 62.3293 123.07 62.3293H128.556C130.52 62.3293 132.112 61.1535 132.112 59.7027V59.3882C132.112 57.9374 130.52 56.7616 128.556 56.7616H123.07C123.044 56.7616 123.022 56.783 123.022 56.8089Z" fill="#002F49"/>
<path d="M181.366 51.9068V66.5637C181.366 66.5927 181.343 66.6156 181.314 66.6156H176.43C176.401 66.6141 176.378 66.5912 176.378 66.5621L176.386 43.4575C176.386 43.4285 176.408 43.4056 176.437 43.4056L181.127 43.3979C181.143 43.3979 181.159 43.4056 181.168 43.4193L192.292 58.1587C192.309 58.1816 192.342 58.1861 192.365 58.1678C192.377 58.1587 192.385 58.1434 192.385 58.1281L192.394 43.4529C192.394 43.4239 192.417 43.401 192.446 43.401H197.301C197.33 43.401 197.353 43.4239 197.353 43.4529V66.5637C197.353 66.5927 197.33 66.6156 197.301 66.6156H192.597C192.58 66.6156 192.566 66.608 192.556 66.5957L181.459 51.8763C181.442 51.8534 181.408 51.8488 181.386 51.8671C181.373 51.8763 181.366 51.8915 181.366 51.9068Z" fill="#002F49"/>
<path d="M208.843 56.9155C208.852 60.4278 211.303 62.5687 214.725 62.2832C216.828 62.1075 218.52 60.8065 219.076 58.7678C219.222 58.2318 219.298 57.2194 219.303 55.732C219.318 51.6471 219.32 47.5591 219.306 43.4696C219.306 43.4238 219.329 43.4009 219.376 43.4009H224.466C224.518 43.4009 224.544 43.4268 224.544 43.4788C224.548 48.1898 224.548 52.8993 224.544 57.6073C224.544 57.9692 224.503 58.4151 224.42 58.9434C223.724 63.3903 220.483 66.1879 216.167 66.7575C210.512 67.5058 204.964 65.3098 203.799 59.1969C203.666 58.5052 203.601 57.4912 203.601 56.155C203.601 51.9296 203.601 47.7057 203.602 43.4803C203.602 43.4268 203.628 43.4009 203.681 43.4009H208.745C208.805 43.4009 208.834 43.4299 208.834 43.4895C208.829 47.9668 208.832 52.4427 208.843 56.9155Z" fill="#002F49"/>
<path d="M240.901 47.8996V66.5544C240.901 66.588 240.874 66.6155 240.841 66.6155H235.725C235.691 66.6155 235.664 66.588 235.664 66.5544V47.9073C235.664 47.8737 235.636 47.8462 235.603 47.8462L228.678 47.8386C228.644 47.8386 228.617 47.8111 228.617 47.7775L228.615 43.462C228.615 43.4284 228.643 43.4009 228.676 43.4009H247.939C247.973 43.4009 248 43.4284 248 43.462V47.779C248 47.8126 247.973 47.8401 247.939 47.8401H240.962C240.929 47.8386 240.901 47.866 240.901 47.8996Z" fill="#002F49"/>
</g>
<defs>
<clipPath id="clip0_242_569">
<rect width="248" height="124" fill="white"/>
</clipPath>
</defs>
</svg>
