<svg width="211" height="105" viewBox="0 0 211 105" fill="none" xmlns="http://www.w3.org/2000/svg">
<g clip-path="url(#clip0_242_437)">
<path d="M71.77 8.19948L68.5331 8.89128C68.502 8.89775 68.4696 8.89128 68.4437 8.87189L57.7676 0.620696L59.8784 0.00647974C59.9225 -0.00774422 59.964 -0.00127879 60.0015 0.0258761L71.77 8.19948Z" fill="#00C5CD"/>
<path d="M57.7676 0.620667L68.4437 8.87186C68.4696 8.89125 68.502 8.89772 68.5331 8.89125L71.77 8.19945C74.2514 7.69127 76.7536 7.17662 79.2765 6.6568C80.3844 6.42921 81.2345 6.29085 81.8293 6.24042C85.3007 5.94948 88.5 6.75119 91.4259 8.64557C92.9161 9.61021 93.4254 11.0792 92.5066 12.7382C92.7101 11.6016 92.3615 10.7714 91.4609 10.2503C89.8153 9.29728 88.3717 8.72832 86.4553 8.48781C84.2757 8.21368 82.1545 8.28221 80.0903 8.69212C76.0578 9.49512 66.5648 11.4296 51.6113 14.4942C50.274 14.7683 50.042 14.3972 49.1777 13.3537C48.4456 12.4705 47.7122 11.5873 46.9762 10.7067C45.6143 9.07616 44.6619 8.11799 42.6119 8.17876C41.815 8.20204 40.8406 8.29514 39.686 8.45936L38.3358 6.49387C38.3138 6.46284 38.3215 6.42016 38.3526 6.39818C38.3617 6.39172 38.3721 6.38784 38.3837 6.38654C39.8908 6.19387 41.631 5.87836 42.989 6.01931C44.4546 6.17318 45.7581 6.70206 46.8971 7.60722C47.3299 7.95118 47.8729 8.53436 48.5273 9.35676C49.3294 10.3641 50.125 11.3727 50.9167 12.38C50.9452 12.4162 50.9906 12.433 51.0346 12.424L63.6959 9.84038C63.714 9.8365 63.7244 9.81969 63.7205 9.80159C63.7205 9.79641 63.7166 9.79124 63.7127 9.78607L55.8809 1.26592C55.8459 1.22842 55.8524 1.20126 55.9029 1.18704L57.7676 0.620667Z" fill="#1EE5DA"/>
<path d="M45.4032 16.6704C45.4032 16.6704 45.4013 16.6685 45.3994 16.6666C45.3994 16.6666 45.4013 16.6685 45.4032 16.6704Z" fill="#00C5CD"/>
<path d="M91.4614 10.2503C89.8158 9.29727 88.3723 8.72832 86.4558 8.4878C84.2762 8.21367 82.155 8.2822 80.0908 8.69211C76.0583 9.49512 66.5653 11.4296 51.6118 14.4942C50.2745 14.7683 50.0425 14.3972 49.1782 13.3537C48.4461 12.4705 47.7127 11.5873 46.9767 10.7067C45.6148 9.07616 44.6624 8.11798 42.6124 8.17875C41.8155 8.20203 40.8411 8.29513 39.6865 8.45935L44.2581 15.1808L44.5963 15.6683C44.608 15.6851 44.6144 15.6993 44.6196 15.7136C44.7751 15.9399 44.9786 16.2049 45.1755 16.4274C45.2481 16.5075 45.3232 16.5877 45.401 16.6666C45.401 16.6666 45.4023 16.6679 45.4036 16.6692C46.5219 17.8071 48.0302 18.6799 49.6201 18.8752C49.9894 18.9204 50.5 18.9023 51.153 18.8209C54.8603 18.3592 58.5831 17.9079 62.3228 17.4657L63.7003 15.5261C63.7534 15.4498 63.8376 15.3994 63.9309 15.389L76.2682 13.9007C76.2838 13.8981 76.298 13.9033 76.3084 13.9149C76.3265 13.9343 76.3265 13.964 76.3084 13.9821L74.2817 15.9981C79.7047 15.3489 85.0861 14.6985 90.4274 14.0455C91.3357 13.9343 92.0303 13.4985 92.5084 12.7382C92.7119 11.6016 92.3633 10.7714 91.4627 10.2503H91.4614Z" fill="#00C5CD"/>
<path d="M74.2805 15.9981L59.7079 30.6668C59.6781 30.6966 59.6445 30.7056 59.6043 30.6966L54.1101 29.2858C54 29.2587 53.9779 29.1979 54.044 29.1061L62.3216 17.4657L63.699 15.5261C63.7521 15.4498 63.8364 15.3994 63.9297 15.389L76.267 13.9007C76.2929 13.8968 76.3175 13.9149 76.3214 13.942C76.324 13.9576 76.3188 13.9718 76.3071 13.9821L74.2805 15.9981Z" fill="#1EE5DA"/>
<path d="M34.8009 74.2012H30.4717V73.6801H39.6861V74.2012H35.3568V85.4472H34.8009V74.2012Z" fill="white"/>
<path d="M50.619 85.4472L47.7047 81.396C47.3225 81.4632 46.8962 81.4968 46.4245 81.4968H42.9038V85.4472H42.3311V73.6801H46.4245C47.8952 73.6801 49.0433 74.0254 49.8687 74.7146C50.6941 75.4038 51.1062 76.3594 51.1062 77.5814C51.1062 78.5227 50.8626 79.3102 50.3728 79.9425C49.8843 80.5761 49.1845 81.0158 48.2762 81.2628L51.2915 85.4485H50.6177L50.619 85.4472ZM46.4582 80.9757C47.7721 80.9757 48.7828 80.6809 49.4903 80.0925C50.1978 79.5042 50.5516 78.6663 50.5516 77.5801C50.5516 76.4939 50.1978 75.6728 49.4903 75.0844C48.7828 74.4961 47.7721 74.2012 46.4582 74.2012H42.9038V80.9757H46.4582Z" fill="white"/>
<path d="M62.0736 82.0011H55.0153L53.4319 85.4472H52.8086L58.2665 73.6801H58.8224L64.2803 85.4472H63.657L62.0736 82.0011ZM61.8546 81.5136L58.5529 74.3357L55.2343 81.5136H61.8546Z" fill="white"/>
<path d="M76.4097 73.6801V85.4472H75.9381L67.5659 74.7223V85.4472H66.9932V73.6801H67.4648L75.837 84.405V73.6801H76.4097Z" fill="white"/>
<path d="M81.6896 85.0606C80.9199 84.758 80.3277 84.3662 79.9131 83.8839L80.2163 83.4804C80.6089 83.9292 81.157 84.2951 81.8581 84.5809C82.5604 84.8666 83.3094 85.0102 84.1063 85.0102C85.2855 85.0102 86.1757 84.7774 86.7769 84.3119C87.3782 83.8477 87.6788 83.2503 87.6788 82.5223C87.6788 81.9624 87.522 81.5111 87.2071 81.1697C86.8923 80.8283 86.5048 80.5697 86.0448 80.3964C85.5848 80.2232 84.955 80.0408 84.1581 79.8508C83.3042 79.6374 82.6187 79.4305 82.103 79.2288C81.586 79.0271 81.148 78.7193 80.789 78.3042C80.4301 77.8891 80.25 77.3344 80.25 76.64C80.25 76.0905 80.3951 75.5861 80.688 75.1271C80.9795 74.6681 81.4266 74.3008 82.0265 74.0267C82.6278 73.7525 83.3768 73.6155 84.276 73.6155C84.9162 73.6155 85.5472 73.7112 86.1705 73.9013C86.7938 74.0913 87.3238 74.3551 87.763 74.6913L87.5104 75.1452C87.0503 74.809 86.5359 74.5543 85.9683 74.3797C85.4008 74.2064 84.8423 74.1198 84.2929 74.1198C83.1474 74.1198 82.2792 74.3577 81.6909 74.8349C81.1013 75.3107 80.8059 75.9133 80.8059 76.6413C80.8059 77.2129 80.9666 77.6693 81.2866 78.0107C81.6067 78.3534 81.9993 78.6133 82.4658 78.7917C82.9323 78.9715 83.5582 79.1564 84.3447 79.3464C85.1986 79.5598 85.8828 79.7641 86.3999 79.9607C86.9169 80.1572 87.351 80.4598 87.706 80.8684C88.0598 81.277 88.236 81.824 88.236 82.5068C88.236 83.0563 88.087 83.5606 87.7889 84.0197C87.4909 84.4787 87.0335 84.8434 86.4167 85.1123C85.7986 85.3813 85.0354 85.5158 84.1257 85.5158C83.2718 85.5158 82.4606 85.3645 81.6909 85.0619L81.6896 85.0606Z" fill="white"/>
<path d="M99.2759 74.7133C100.101 75.4025 100.513 76.3581 100.513 77.5801C100.513 78.802 100.1 79.7731 99.2759 80.4624C98.4505 81.1516 97.3024 81.4968 95.8317 81.4968H92.311V85.4472H91.7383V73.6801H95.8317C97.3024 73.6801 98.4505 74.0254 99.2759 74.7146V74.7133ZM98.8963 80.0925C99.6038 79.5042 99.9575 78.6663 99.9575 77.5801C99.9575 76.4939 99.6038 75.6728 98.8963 75.0844C98.1888 74.4961 97.178 74.2012 95.8641 74.2012H92.3097V80.9757H95.8641C97.178 80.9757 98.1888 80.6809 98.8963 80.0925Z" fill="white"/>
<path d="M105.93 84.7412C105.003 84.2253 104.276 83.5141 103.748 82.6063C103.22 81.6986 102.956 80.6848 102.956 79.5637C102.956 78.4426 103.22 77.4288 103.748 76.5211C104.275 75.6133 105.003 74.9021 105.93 74.3862C106.856 73.8702 107.892 73.6129 109.037 73.6129C110.183 73.6129 111.222 73.8702 112.154 74.3862C113.085 74.9021 113.816 75.6133 114.344 76.5211C114.871 77.4288 115.135 78.4439 115.135 79.5637C115.135 80.6835 114.871 81.6986 114.344 82.6063C113.815 83.5141 113.085 84.2253 112.154 84.7412C111.222 85.2572 110.183 85.5145 109.037 85.5145C107.892 85.5145 106.856 85.2572 105.93 84.7412ZM111.85 84.2874C112.693 83.8167 113.355 83.1662 113.838 82.3374C114.322 81.5085 114.563 80.5839 114.563 79.5637C114.563 78.5435 114.32 77.6189 113.838 76.79C113.355 75.9612 112.693 75.3107 111.85 74.8401C111.008 74.3694 110.07 74.134 109.037 74.134C108.004 74.134 107.069 74.3694 106.233 74.8401C105.396 75.3107 104.736 75.9612 104.253 76.79C103.77 77.6202 103.529 78.5435 103.529 79.5637C103.529 80.5839 103.77 81.5085 104.253 82.3374C104.736 83.1662 105.396 83.8167 106.233 84.2874C107.07 84.758 108.004 84.9934 109.037 84.9934C110.07 84.9934 111.008 84.758 111.85 84.2874Z" fill="white"/>
<path d="M126.961 85.4472L124.047 81.396C123.664 81.4632 123.238 81.4968 122.766 81.4968H119.246V85.4472H118.673V73.6801H122.766C124.237 73.6801 125.385 74.0254 126.211 74.7146C127.036 75.4038 127.448 76.3594 127.448 77.5814C127.448 78.5227 127.204 79.3102 126.715 79.9425C126.226 80.5761 125.526 81.0158 124.618 81.2628L127.633 85.4485H126.959L126.961 85.4472ZM122.8 80.9757C124.114 80.9757 125.125 80.6809 125.832 80.0925C126.54 79.5042 126.893 78.6663 126.893 77.5801C126.893 76.4939 126.54 75.6728 125.832 75.0844C125.125 74.4961 124.114 74.2012 122.8 74.2012H119.246V80.9757H122.8Z" fill="white"/>
<path d="M133.261 74.2012H128.932V73.6801H138.146V74.2012H133.817V85.4472H133.261V74.2012Z" fill="white"/>
<path d="M147.428 82.0011H140.37L138.786 85.4472H138.163L143.621 73.6801H144.177L149.635 85.4472H149.012L147.428 82.0011ZM147.209 81.5136L143.907 74.3357L140.589 81.5136H147.209Z" fill="white"/>
<path d="M152.347 73.6801H156.895C158.119 73.6801 159.205 73.9323 160.154 74.4366C161.102 74.9409 161.838 75.6379 162.361 76.5301C162.883 77.421 163.143 78.4322 163.143 79.5637C163.143 80.6951 162.883 81.7076 162.361 82.5972C161.838 83.4882 161.102 84.1865 160.154 84.6908C159.205 85.1951 158.118 85.4472 156.895 85.4472H152.347V73.6801ZM156.861 84.9261C158.007 84.9261 159.008 84.6959 159.867 84.2369C160.727 83.7778 161.393 83.1416 161.864 82.3296C162.336 81.5175 162.572 80.5955 162.572 79.565C162.572 78.5344 162.336 77.6124 161.864 76.8003C161.393 75.9883 160.728 75.3521 159.867 74.893C159.008 74.434 158.007 74.2038 156.861 74.2038H152.919V84.9287H156.861V84.9261Z" fill="white"/>
<path d="M168.46 84.7412C167.534 84.2253 166.807 83.5141 166.278 82.6063C165.751 81.6986 165.486 80.6848 165.486 79.5637C165.486 78.4426 165.751 77.4288 166.278 76.5211C166.805 75.6133 167.534 74.9021 168.46 74.3862C169.387 73.8702 170.422 73.6129 171.568 73.6129C172.713 73.6129 173.752 73.8702 174.684 74.3862C175.616 74.9021 176.346 75.6133 176.874 76.5211C177.401 77.4288 177.666 78.4439 177.666 79.5637C177.666 80.6835 177.401 81.6986 176.874 82.6063C176.345 83.5141 175.616 84.2253 174.684 84.7412C173.752 85.2572 172.713 85.5145 171.568 85.5145C170.422 85.5145 169.387 85.2572 168.46 84.7412ZM174.381 84.2874C175.223 83.8167 175.885 83.1662 176.368 82.3374C176.852 81.5085 177.093 80.5839 177.093 79.5637C177.093 78.5435 176.85 77.6189 176.368 76.79C175.885 75.9612 175.223 75.3107 174.381 74.8401C173.538 74.3694 172.6 74.134 171.568 74.134C170.535 74.134 169.599 74.3694 168.763 74.8401C167.926 75.3107 167.267 75.9612 166.783 76.79C166.3 77.6202 166.059 78.5435 166.059 79.5637C166.059 80.5839 166.3 81.5085 166.783 82.3374C167.267 83.1662 167.926 83.8167 168.763 84.2874C169.6 84.758 170.535 84.9934 171.568 84.9934C172.6 84.9934 173.538 84.758 174.381 84.2874Z" fill="white"/>
<path d="M189.491 85.4472L186.577 81.396C186.195 81.4632 185.768 81.4968 185.297 81.4968H181.776V85.4472H181.203V73.6801H185.297C186.767 73.6801 187.915 74.0254 188.741 74.7146C189.566 75.4038 189.978 76.3594 189.978 77.5814C189.978 78.5227 189.735 79.3102 189.245 79.9425C188.756 80.5761 188.057 81.0158 187.148 81.2628L190.164 85.4485H189.49L189.491 85.4472ZM185.33 80.9757C186.644 80.9757 187.655 80.6809 188.362 80.0925C189.07 79.5042 189.424 78.6663 189.424 77.5801C189.424 76.4939 189.07 75.6728 188.362 75.0844C187.655 74.4961 186.644 74.2012 185.33 74.2012H181.776V80.9757H185.33Z" fill="white"/>
<path d="M200.946 82.0011H193.887L192.304 85.4472H191.681L197.139 73.6801H197.694L203.152 85.4472H202.529L200.946 82.0011ZM200.727 81.5136L197.425 74.3357L194.106 81.5136H200.727Z" fill="white"/>
<path d="M44.2584 15.1808L44.5966 15.6683C44.6523 15.7485 44.6303 15.7925 44.5331 15.7989C22.4112 17.4101 3.99407 34.4582 2.84081 56.9915C2.27325 68.0901 6.46775 79.0581 14.0546 87.1386C18.4189 91.7885 24.1982 95.6316 30.3519 97.8208C40.0496 101.269 49.6334 100.702 59.6719 97.9721C64.7579 96.5897 70.5398 92.4545 70.5398 92.4545C71.0464 92.4545 76.2504 92.4687 78.4131 92.4545C76.608 94.8337 72.924 97.0863 70.9428 98.4246C70.4309 98.7712 68.7892 99.6414 68.7892 99.6414L66.6705 100.686L64.7929 101.503L62.7741 102.275C48.8714 107.115 33.5331 105.454 21.0986 97.6992C1.88062 85.7149 -5.49247 61.507 4.36467 40.9935C11.7546 25.6148 27.2718 15.8675 44.2584 15.1808Z" fill="#1EE5DA"/>
<path d="M29.6855 37.3107C33.7335 35.7732 38.3984 36.7224 41.507 39.8038C41.5342 39.8309 41.5355 39.8607 41.5109 39.8904L38.9984 42.9563C38.9712 42.9887 38.9219 42.9938 38.8882 42.9654C38.8856 42.9628 38.883 42.9602 38.8804 42.9576C36.7981 40.6003 33.4783 39.5736 30.6418 41.3348C27.1016 43.5318 26.871 48.8024 30.1545 51.3498C32.9431 53.5131 36.5428 52.6222 38.8895 50.3179C38.9245 50.2843 38.9582 50.2856 38.9906 50.3205L41.5226 53.0735C41.5576 53.111 41.5563 53.1485 41.52 53.1847C40.0933 54.6252 38.4036 55.6338 36.4521 56.2118C31.7134 57.6135 26.4421 55.5394 24.2677 51.0368C23.2272 48.8826 22.9732 46.6339 23.5058 44.2895C24.247 41.0232 26.5652 38.4965 29.6855 37.3107Z" fill="white"/>
<path d="M72.6981 50.8545V56.3476C72.6981 56.3876 72.6787 56.4083 72.6385 56.4083H68.3015C68.26 56.4083 68.2393 56.3876 68.2393 56.3463V36.7948C68.2393 36.7624 68.2548 36.7469 68.2872 36.7456C72.9482 36.6926 76.1799 36.6978 77.985 36.7612C78.7275 36.787 79.6436 36.9952 80.7333 37.3844C84.1581 38.6064 85.244 41.8598 84.6894 45.2037C84.3434 47.2908 83.1876 48.8606 81.2245 49.9144C81.1817 49.9364 81.1739 49.9675 81.1998 50.0075L85.2842 56.3294C85.2997 56.3527 85.2946 56.3838 85.2712 56.3993C85.2622 56.4057 85.2518 56.4083 85.2414 56.4083H80.3226C80.2876 56.4083 80.2617 56.3928 80.2448 56.3618L77.2049 50.8442C77.1842 50.8067 77.1518 50.7873 77.109 50.7873H72.7655C72.7201 50.7873 72.6981 50.8093 72.6981 50.8545ZM72.6864 40.4878L72.7098 47.0515C72.7098 47.0709 72.7253 47.0865 72.7448 47.0865L77.3189 47.0697C79.1266 47.0632 80.5856 45.7067 80.5804 44.0399L80.5779 43.4425C80.5714 41.7757 79.1019 40.4296 77.2956 40.4361L72.7214 40.4529C72.702 40.4529 72.6864 40.4684 72.6864 40.4878Z" fill="white"/>
<path d="M126.089 40.4892V44.6232C126.089 44.6529 126.112 44.6762 126.142 44.6762H135.551C135.581 44.6762 135.604 44.6995 135.604 44.7292L135.607 48.3149C135.607 48.3447 135.583 48.3679 135.554 48.3679H126.142C126.112 48.3679 126.089 48.3912 126.089 48.421V52.6675C126.089 52.6972 126.112 52.7205 126.142 52.7205H136.896C136.926 52.7205 136.949 52.7438 136.949 52.7735V56.3735C136.949 56.4032 136.926 56.4265 136.896 56.4265H121.682C121.652 56.4265 121.629 56.4032 121.629 56.3735V36.7767C121.629 36.747 121.652 36.7237 121.682 36.7237L136.589 36.7263C136.619 36.7263 136.642 36.7496 136.642 36.7793L136.641 40.3818C136.641 40.4116 136.617 40.4349 136.588 40.4349H126.142C126.112 40.4349 126.089 40.4594 126.089 40.4892Z" fill="white"/>
<path d="M49.2821 52.6145L47.7635 56.3799C47.757 56.3967 47.7388 56.4084 47.7207 56.4084H43.2036C43.1789 56.4084 43.1582 56.3877 43.1582 56.3631C43.1582 56.3567 43.1595 56.3502 43.1621 56.345L51.6768 36.778C51.6846 36.7612 51.7001 36.7509 51.7182 36.7509H56.2743C56.2924 36.7509 56.308 36.7612 56.3157 36.778L64.6905 56.345C64.7009 56.3683 64.6905 56.3942 64.6672 56.4045C64.662 56.4071 64.6555 56.4084 64.649 56.4084H59.9647C59.9466 56.4084 59.9284 56.3967 59.9219 56.3799L58.4007 52.6145C58.3942 52.5976 58.3774 52.586 58.3579 52.586H49.3249C49.3068 52.586 49.2886 52.5976 49.2821 52.6145ZM50.7879 48.9447C50.7788 48.9679 50.7905 48.9938 50.8125 49.0029C50.8177 49.0054 50.8229 49.0054 50.8293 49.0067L56.882 49.0171C56.9066 49.0171 56.9274 48.9977 56.9286 48.9731C56.9286 48.9667 56.9286 48.9615 56.9248 48.955L53.9107 41.5146C53.9017 41.4913 53.8745 41.4797 53.8524 41.4887C53.8408 41.4939 53.8317 41.503 53.8265 41.5146L50.7879 48.9447Z" fill="white"/>
<path d="M94.3706 36.7509H90.0297C89.9982 36.7509 89.9727 36.7763 89.9727 36.8078V56.3515C89.9727 56.3829 89.9982 56.4084 90.0297 56.4084H94.3706C94.4021 56.4084 94.4276 56.3829 94.4276 56.3515V36.8078C94.4276 36.7763 94.4021 36.7509 94.3706 36.7509Z" fill="white"/>
<path d="M113.072 45.9925C114.969 46.4037 116.199 47.4822 116.761 49.2278C117.234 50.6994 117.12 52.0739 116.419 53.3515C115.023 55.8924 111.964 56.4058 109.357 56.4071C106.323 56.4084 103.294 56.4084 100.271 56.4071C100.23 56.4071 100.211 56.3877 100.211 56.3476V36.822C100.21 36.7793 100.232 36.7573 100.274 36.7573C103.649 36.7405 107.017 36.7418 110.379 36.7612C110.761 36.7638 111.411 36.884 112.324 37.1207C114.461 37.6754 116.201 39.1663 116.249 41.4978C116.293 43.6831 115.233 45.1637 113.068 45.9382C113.007 45.9602 113.008 45.9783 113.072 45.9925ZM104.666 40.4116L104.674 44.5986C104.674 44.6154 104.688 44.6296 104.705 44.6296L109.285 44.6219C110.618 44.6193 111.696 43.7219 111.693 42.6189V42.3667C111.69 41.2624 110.61 40.3702 109.278 40.3728L104.697 40.3805C104.68 40.3805 104.666 40.3948 104.666 40.4116ZM104.669 48.1042V52.7386C104.669 52.7606 104.687 52.7787 104.709 52.7787H109.376C111.048 52.7787 112.402 51.783 112.402 50.5546V50.2882C112.402 49.0597 111.048 48.0641 109.376 48.0641H104.709C104.687 48.0641 104.669 48.0822 104.669 48.1042Z" fill="white"/>
<path d="M154.307 43.9533V56.3644C154.307 56.3889 154.288 56.4083 154.263 56.4083H150.108C150.083 56.407 150.063 56.3876 150.063 56.3631L150.07 36.7987C150.07 36.7741 150.089 36.7547 150.114 36.7547L154.104 36.7482C154.118 36.7482 154.131 36.7547 154.139 36.7663L163.603 49.2472C163.618 49.2666 163.646 49.2705 163.665 49.255C163.676 49.2472 163.682 49.2343 163.682 49.2214L163.69 36.7948C163.69 36.7702 163.71 36.7508 163.734 36.7508H167.865C167.89 36.7508 167.909 36.7702 167.909 36.7948V56.3644C167.909 56.3889 167.89 56.4083 167.865 56.4083H163.862C163.848 56.4083 163.837 56.4019 163.827 56.3915L154.386 43.9275C154.372 43.9081 154.343 43.9042 154.324 43.9197C154.314 43.9275 154.307 43.9404 154.307 43.9533Z" fill="white"/>
<path d="M177.685 48.1947C177.693 51.1688 179.777 52.9817 182.689 52.7399C184.479 52.5912 185.918 51.4895 186.391 49.7632C186.516 49.3093 186.58 48.452 186.584 47.1925C186.597 43.7335 186.599 40.2719 186.587 36.809C186.587 36.7703 186.606 36.7509 186.646 36.7509H190.977C191.021 36.7509 191.043 36.7728 191.043 36.8168C191.047 40.806 191.047 44.7939 191.043 48.7804C191.043 49.0869 191.008 49.4645 190.938 49.9119C190.346 53.6774 187.589 56.0463 183.916 56.5286C179.105 57.1622 174.384 55.3028 173.393 50.1266C173.28 49.5408 173.225 48.6822 173.225 47.5507C173.225 43.9728 173.225 40.3961 173.226 36.8181C173.226 36.7728 173.248 36.7509 173.293 36.7509H177.602C177.652 36.7509 177.677 36.7754 177.677 36.8259C177.673 40.6172 177.676 44.4072 177.685 48.1947Z" fill="white"/>
<path d="M204.96 40.5603V56.3566C204.96 56.3851 204.937 56.4084 204.908 56.4084H200.556C200.527 56.4084 200.504 56.3851 200.504 56.3566V40.5668C200.504 40.5383 200.48 40.515 200.452 40.515L194.56 40.5086C194.531 40.5086 194.508 40.4853 194.508 40.4568L194.507 36.8026C194.507 36.7741 194.53 36.7509 194.559 36.7509H210.948C210.976 36.7509 211 36.7741 211 36.8026V40.4581C211 40.4866 210.976 40.5099 210.948 40.5099H205.012C204.983 40.5086 204.96 40.5318 204.96 40.5603Z" fill="white"/>
<path d="M66.8862 64.5988L72.002 64.5884L74.0714 64.6014H91.1021L92.679 64.5962L97.8091 64.6001H170.993C171.033 64.5988 171.054 64.6195 171.054 64.6596V66.0755C171.054 66.1285 171.027 66.1557 170.974 66.1557H100.085L97.0342 66.1595H94.0046H87.8094H67.2944L64.6328 66.1518H64.0976C64.0471 66.1518 64.0225 66.1285 64.0225 66.0794V64.6596C64.0225 64.6208 64.0419 64.6014 64.0821 64.6014L66.8862 64.5988Z" fill="#1EE5DA"/>
</g>
<defs>
<clipPath id="clip0_242_437">
<rect width="211" height="105" fill="white"/>
</clipPath>
</defs>
</svg>
